<svg width="32" height="32" viewBox="0 0 32 32" fill="none" xmlns="http://www.w3.org/2000/svg">
<circle cx="16" cy="16" r="16" fill="#FF7992"/>
<path fill-rule="evenodd" clip-rule="evenodd" d="M21.1396 21H19.141V17.5005C19.141 16.5405 18.7178 16.0049 17.9588 16.0049C17.1329 16.0049 16.6427 16.563 16.6427 17.5005V21H14.6441V14.5H16.6427V15.231C16.6427 15.231 17.2698 14.1299 18.6828 14.1299C20.0964 14.1299 21.1396 14.9931 21.1396 16.7791V21ZM12.3667 13.4604C11.6926 13.4604 11.1465 12.9095 11.1465 12.23C11.1465 11.551 11.6926 11 12.3667 11C13.0402 11 13.5863 11.551 13.5863 12.23C13.5868 12.9095 13.0402 13.4604 12.3667 13.4604ZM11.1465 21H13.6448V14.5H11.1465V21Z" fill="white"/>
</svg>
